# xmcd CD database file
#
# Track frame offsets:
#	150
#	13987
#	31132
#	49285
#	64167
#	78400
#	93050
#	112085
#	130485
#	146655
#	160417
#	175820
#	191925
#	211172
#	228805
#	248722
#	266420
#	282640
#	301602
#	312585
#
# Disc length: 4300 seconds
#
# Revision: 1
# Processed by: cddbd v1.5.2PL0 Copyright (c) Steve Scherf et al.
# Submitted via: jetAudio 7
#
DISCID=2010ca14
DTITLE=1 - 1
DYEAR=1900
DGENRE=blues
TTITLE0=1
TTITLE1=1
TTITLE2=1
TTITLE3=1
TTITLE4=1
TTITLE5=1
TTITLE6=1
TTITLE7=1
TTITLE8=1
TTITLE9=1
TTITLE10=1
TTITLE11=1
TTITLE12=1
TTITLE13=1
TTITLE14=1
TTITLE15=1
TTITLE16=1
TTITLE17=1
TTITLE18=1
TTITLE19=1
EXTD=
EXTT0=
EXTT1=
EXTT2=
EXTT3=
EXTT4=
EXTT5=
EXTT6=
EXTT7=
EXTT8=
EXTT9=
EXTT10=
EXTT11=
EXTT12=
EXTT13=
EXTT14=
EXTT15=
EXTT16=
EXTT17=
EXTT18=
EXTT19=
PLAYORDER=
